<?xml version="1.0" encoding="UTF-8"?>
<svg id="Layer_1" data-name="Layer 1" xmlns="http://www.w3.org/2000/svg" viewBox="0 0 576.49 669.91">
  <defs>
    <style>
      .cls-1 {
      fill: #f2c44e;
      }

      .cls-1, .cls-2, .cls-3 {
      fill-rule: evenodd;
      }

      .cls-2 {
      fill: rgba(253, 214, 110, .8);
      }

      .cls-3 {
      fill: rgba(245, 130, 32, .8);
      }

      .cls-4 {
      fill: #9ea939;
      }

      .cls-5 {
      fill: #0c7e86;
      }
    </style>
  </defs>
  <g id="Page-1">
    <g id="Group-2">
      <path id="Rectangle-Copy-11" class="cls-1"
        d="M259.59,63.56v293.98c0,33.21-26.86,60.13-60,60.13-33.14,0-60-26.92-60-60.13V63.56c0-33.21,26.86-60.13,60-60.13,33.14,0,60,26.92,60,60.13Z" />
      <path id="Rectangle-Copy-9" class="cls-3"
        d="M22.45,266.75l132.6,131.74c23.54,23.39,61.7,23.39,85.24,0,23.54-23.39,23.54-61.3,0-84.69L107.69,182.07c-23.54-23.39-61.7-23.39-85.24,0-23.54,23.39-23.54,61.3,0,84.69Z" />
      <path id="Rectangle-Copy-10" class="cls-2"
        d="M375.08,266.75l-132.6,131.74c-23.54,23.39-61.7,23.39-85.24,0-23.54-23.39-23.54-61.3,0-84.69l132.6-131.74c23.54-23.39,61.7-23.39,85.24,0,23.54,23.39,23.54,61.3,0,84.69Z" />
    </g>
  </g>
  <path class="cls-5"
    d="M83.31,515.73l-71.82,90.27V251.56s6.06,10.19,10.95,15.2c9.33,9.56,60.87,60.47,60.87,60.47v188.5Z" />
  <g>
    <path class="cls-4"
      d="M482.54,534.54l-44.55,49.69-118.16-90.82v-171.76s40.42-39.57,55.26-54.9c8.18-8.45,12.98-18.45,12.98-18.45l1.09,209.98" />
    <circle class="cls-4" cx="503.53" cy="595.38" r="68.97" />
  </g>
</svg>